<svg width="2796" height="1988" viewBox="0 0 2796 1988" fill="none" xmlns="http://www.w3.org/2000/svg">
<g clip-path="url(#clip0_14_105)">
<rect width="2796" height="1988" fill="white"/>
<mask id="mask0_14_105" style="mask-type:alpha" maskUnits="userSpaceOnUse" x="-175" y="-750" width="1569" height="1849">
<path d="M-174.063 64.3925L1393.58 1098.29L841.525 -749.566L-174.063 64.3925Z" fill="#DFFD05"/>
</mask>
<g mask="url(#mask0_14_105)">
<path d="M-174.063 64.3925L1393.58 1098.29L841.525 -749.566L-174.063 64.3925Z" fill="#DFFD05"/>
</g>
<mask id="mask1_14_105" style="mask-type:alpha" maskUnits="userSpaceOnUse" x="1397" y="-683" width="1648" height="1780">
<path d="M1999.55 -682.03L1398 1096.9L3044.88 93.361L1999.55 -682.03Z" fill="#F65F33"/>
</mask>
<g mask="url(#mask1_14_105)">
<path d="M1999.55 -682.03L1398 1096.9L3044.88 93.361L1999.55 -682.03Z" fill="#F65F33"/>
</g>
<mask id="mask2_14_105" style="mask-type:alpha" maskUnits="userSpaceOnUse" x="1400" y="1094" width="1568" height="1849">
<path d="M2967.78 2128.61L1400.14 1094.71L1952.19 2942.56L2967.78 2128.61Z" fill="#00FFA3"/>
</mask>
<g mask="url(#mask2_14_105)">
<path d="M2967.78 2128.61L1400.14 1094.71L1952.19 2942.56L2967.78 2128.61Z" fill="#00FFA3"/>
</g>
<mask id="mask3_14_105" style="mask-type:alpha" maskUnits="userSpaceOnUse" x="-252" y="1096" width="1648" height="1780">
<path d="M794.167 2875.03L1395.72 1096.1L-251.164 2099.64L794.167 2875.03Z" fill="white"/>
</mask>
<g mask="url(#mask3_14_105)">
<path d="M794.167 2875.03L1395.72 1096.1L-251.164 2099.64L794.167 2875.03Z" fill="#FF00B8"/>
</g>
</g>
<defs>
<clipPath id="clip0_14_105">
<rect width="2796" height="1988" fill="white"/>
</clipPath>
</defs>
</svg>
